<svg xmlns="http://www.w3.org/2000/svg" data-name="Layer 1" viewBox="0 0 128 160" x="0px" y="0px"><title>miscellaneous 216_expandline</title><path d="M63.999,26A13,13,0,1,0,51,12.999,13.01544,13.01544,0,0,0,63.999,26Zm0-22A9,9,0,1,1,55,12.999,9.01015,9.01015,0,0,1,63.999,4Z"/><path d="M63.9995,64A8,8,0,1,0,72,72,8.00878,8.00878,0,0,0,63.9995,64Zm0,12A4,4,0,1,1,68,72,4.00379,4.00379,0,0,1,63.9995,76Z"/><path d="M64.5,46h-1a2,2,0,0,0,0,4h1a2,2,0,0,0,0-4Z"/><circle cx="80.00025" cy="84.00145" r="2"/><circle cx="48.00025" cy="84.00145" r="2"/><path d="M127.1826,124.3867l-30-22a2.00032,2.00032,0,0,0-2.3652,3.2266l30,22a2.00032,2.00032,0,0,0,2.3652-3.2266Z"/><path d="M30.8174,102.3867l-30,22a2.00047,2.00047,0,0,0-.43018,2.7959,2.02091,2.02091,0,0,0,2.79541.4307l30-22a2.00032,2.00032,0,0,0-2.3652-3.2266Z"/><path d="M43,37.6143c0-5.6006,4.3369-9.5127,10.5464-9.5127h2.6811a17.09463,17.09463,0,0,1-4.9311-3.8438c-7.2085.916-12.2466,6.1983-12.2915,13.2627A8.24121,8.24121,0,0,1,43,39.6934Z"/><path d="M71.7715,28.1016h2.6821C80.6631,28.1016,85,32.0137,85,37.6143v1.6503a8.09667,8.09667,0,0,1,3.9912-1.833c-.0874-7.0195-5.1108-12.2617-12.2881-13.1738A17.08872,17.08872,0,0,1,71.7715,28.1016Z"/><path d="M90,63.5703a2,2,0,0,0,0-4H86.1514l-1.855-3.6738,4.4849-2.5625H95.167c2.4809,0,4.4995-2.334,4.4995-5.2022V46.5313c0-2.8663-2.0186-5.1973-4.4995-5.1973H90.1665c-2.4814,0-4.5,2.331-4.5,5.1973v3.9755l-3.1753,1.8145L76.627,40.7041A3.25715,3.25715,0,0,0,73.8267,39H54.1743a3.25142,3.25142,0,0,0-2.8037,1.7139L45.3979,52.543l-3.5644-2.0362V46.5313c0-2.8663-2.0186-5.1973-4.5-5.1973H32.333c-2.4809,0-4.4995,2.331-4.4995,5.1973v1.6005c0,2.8682,2.0186,5.2022,4.4995,5.2022h6.3858l4.874,2.7842-1.7432,3.4521H38a2,2,0,0,0,0,4h4.0386a9.60055,9.60055,0,0,1,1.2397,6.0293c-.3818,2.2471-1.8628,4.2598-4.4018,5.9844A1.99829,1.99829,0,0,0,38,77.2383,74.695,74.695,0,0,0,39.7842,92H38a2,2,0,0,0,0,4h2.7876c2.2041,7.7695,6.1611,16.2773,13.2295,22.043a9.98293,9.98293,0,0,0,19.9658,0C81.0513,112.2773,85.0083,103.7695,87.2124,96H90a2,2,0,0,0,0-4H88.2158A74.695,74.695,0,0,0,90,77.2383a1.99829,1.99829,0,0,0-.8765-1.6543c-2.5385-1.7246-4.019-3.7373-4.4013-5.9844a9.60191,9.60191,0,0,1,1.2397-6.0293Zm-.3335-17.039a1.33493,1.33493,0,0,1,.5-1.1973h4.9976a1.3238,1.3238,0,0,1,.5024,1.1973v1.6005a1.33886,1.33886,0,0,1-.501,1.2022h-5.499ZM37.8335,49.334H32.3359a1.33445,1.33445,0,0,1-.5024-1.2022V46.5313a1.33187,1.33187,0,0,1,.4995-1.1973h4.9971a1.32546,1.32546,0,0,1,.5034,1.1973ZM54.6973,43H73.3047l4.8642,9.6348H49.8325ZM70,117.6924a6.0075,6.0075,0,1,1-12,0V98.3086a6.00755,6.00755,0,1,1,12,0ZM85.9717,78.2422C85.7861,82.7666,84.3813,101.459,74,112.5088V98.3086a10.00462,10.00462,0,1,0-20,0v14.2002C43.6187,101.459,42.2139,82.7666,42.0283,78.2422A12.64809,12.64809,0,0,0,47.23,70.2217a13.68445,13.68445,0,0,0-1.8228-8.8223l2.4058-4.7646H80.1885l2.4053,4.7646a13.68283,13.68283,0,0,0-1.8228,8.8223A12.64846,12.64846,0,0,0,85.9717,78.2422Z"/><text x="0" y="143" fill="#000000" font-size="5px" font-weight="bold" font-family="'Helvetica Neue', Helvetica, Arial-Unicode, Arial, Sans-serif">Created by WEBTECHOPS LLP</text><text x="0" y="148" fill="#000000" font-size="5px" font-weight="bold" font-family="'Helvetica Neue', Helvetica, Arial-Unicode, Arial, Sans-serif">from the Noun Project</text></svg>